<svg width="24" height="24" viewBox="0 0 24 24" fill="none" xmlns="http://www.w3.org/2000/svg">
<g clip-path="url(#clip0_1_252)">
<path d="M10.4 19L14 15.4L17.6 19L19 17.6L15.4 14L19 10.4L17.6 9L14 12.6L10.4 9L9 10.4L12.6 14L9 17.6L10.4 19ZM14 24C12.6167 24 11.3167 23.7373 10.1 23.212C8.88333 22.6867 7.825 21.9743 6.925 21.075C6.025 20.175 5.31267 19.1167 4.788 17.9C4.26333 16.6833 4.00067 15.3833 4 14C4 12.6167 4.26267 11.3167 4.788 10.1C5.31333 8.88333 6.02567 7.825 6.925 6.925C7.825 6.025 8.88333 5.31267 10.1 4.788C11.3167 4.26333 12.6167 4.00067 14 4C15.3833 4 16.6833 4.26267 17.9 4.788C19.1167 5.31333 20.175 6.02567 21.075 6.925C21.975 7.825 22.6877 8.88333 23.213 10.1C23.7383 11.3167 24.0007 12.6167 24 14C24 15.3833 23.7373 16.6833 23.212 17.9C22.6867 19.1167 21.9743 20.175 21.075 21.075C20.175 21.975 19.1167 22.6877 17.9 23.213C16.6833 23.7383 15.3833 24.0007 14 24ZM14 22C16.2333 22 18.125 21.225 19.675 19.675C21.225 18.125 22 16.2333 22 14C22 11.7667 21.225 9.875 19.675 8.325C18.125 6.775 16.2333 6 14 6C11.7667 6 9.875 6.775 8.325 8.325C6.775 9.875 6 11.7667 6 14C6 16.2333 6.775 18.125 8.325 19.675C9.875 21.225 11.7667 22 14 22Z" fill="#0F0F0F"/>
</g>
<defs>
<clipPath id="clip0_1_252">
<rect width="24" height="24" fill="white"/>
</clipPath>
</defs>
</svg>
